<?xml version="1.0" encoding="utf-8"?>
<svg width="20px" height="20px" viewBox="0 0 20 20" version="1.1" xmlns:xlink="http://www.w3.org/1999/xlink" xmlns="http://www.w3.org/2000/svg">
  <g id="complete">
    <g id="Group">
      <g id="Group">
        <path d="M9.9998 0C4.48565 0 0 4.486 0 10C0 15.514 4.48565 20 9.9998 20C15.5139 20 20 15.514 20 10C20 4.486 15.5139 0 9.9998 0L9.9998 0ZM9.9998 18.6885C5.209 18.6885 1.3115 14.7908 1.3115 10C1.3115 5.20915 5.20895 1.31155 9.9998 1.31155C14.7906 1.31155 18.6883 5.2092 18.6883 10C18.6884 14.7908 14.7906 18.6885 9.9998 18.6885L9.9998 18.6885Z" id="Shape" fill="#000000" fill-rule="evenodd" stroke="none" />
        <path d="M13.6203 6.7263L8.46375 11.8826L6.3793 9.7986C6.12315 9.54275 5.7082 9.5426 5.45205 9.79875C5.1958 10.055 5.1958 10.47 5.45205 10.7261L8.0002 13.2739C8.12825 13.4018 8.296 13.4658 8.46375 13.4658C8.6315 13.4658 8.7997 13.4018 8.9277 13.2737C8.9281 13.2731 8.9284 13.2726 8.92905 13.2719L14.5475 7.65355C14.8038 7.39755 14.8038 6.98225 14.5475 6.72625C14.2914 6.4701 13.8762 6.4701 13.6203 6.7263L13.6203 6.7263Z" id="Shape" fill="#000000" fill-rule="evenodd" stroke="none" />
      </g>
    </g>
  </g>
</svg>