<?xml version="1.0" encoding="utf-8"?>
<svg width="100px" height="100px" viewBox="0 0 100 100" version="1.1" xmlns:xlink="http://www.w3.org/1999/xlink" xmlns="http://www.w3.org/2000/svg">
  <defs>
    <path d="M0 0L100 0L100 100L0 100L0 0Z" id="path_1" />
    <clipPath id="mask_1">
      <use xlink:href="#path_1" />
    </clipPath>
  </defs>
  <g id="icon">
    <path d="M0 0L100 0L100 100L0 100L0 0Z" id="Background" fill="none" fill-rule="evenodd" stroke="none" />
    <g clip-path="url(#mask_1)">
      <g id="surface13463822" transform="translate(14 14)">
        <path d="M35 0C15.6719 0 0 15.6719 0 35C0 54.3281 15.6719 70 35 70C54.3281 70 70 54.3281 70 35C70 15.6719 54.3281 0 35 0L35 0Z" transform="translate(1 1)" id="Shape" fill="#000000" fill-rule="evenodd" stroke="none" />
        <path d="M30.5 15L19 15L19 2.5C19 1.11719 17.8828 0 16.5 0C15.1172 0 14 1.11719 14 2.5L14 15L2.5 15C1.11719 15 0 16.1172 0 17.5C0 18.8828 1.11719 20 2.5 20L14 20L14 32.5C14 33.8828 15.1172 35 16.5 35C17.8828 35 19 33.8828 19 32.5L19 20L30.5 20C31.8828 20 33 18.8828 33 17.5C33 16.1172 31.8828 15 30.5 15L30.5 15Z" transform="translate(19.5 18.5)" id="Shape" fill="#FEFDEF" fill-rule="evenodd" stroke="none" />
        <path d="M36 0C16.1484 0 0 16.1484 0 36C0 55.8516 16.1484 72 36 72C55.7861 72 71.8935 55.9578 71.9995 36.1962C71.9998 36.1308 72 36.0654 72 36C72 16.1484 55.8516 0 36 0L36 0ZM36 70C17.2539 70 2 54.7461 2 36C2 17.2539 17.2539 2 36 2C54.7461 2 70 17.2539 70 36C70 54.7461 54.7461 70 36 70L36 70Z" id="Shape" fill="#1F212B" fill-rule="evenodd" stroke="none" />
        <path d="M0.277653 0.949434C0.941715 1.27756 1.60578 1.63693 2.2464 2.01584C2.32453 2.06272 2.41047 2.08615 2.50031 2.08615C2.67218 2.08615 2.83625 1.99631 2.93 1.84006C3.07062 1.60178 2.9925 1.29709 2.75422 1.15647C2.09015 0.761934 1.40656 0.390841 0.722965 0.0509968C0.472965 -0.070097 0.17609 0.0314655 0.0510902 0.281466C-0.0700035 0.527559 0.031559 0.828341 0.277653 0.949434L0.277653 0.949434ZM5.19562 4.00412C5.28547 4.07443 5.39484 4.10959 5.50031 4.10959C5.64875 4.10959 5.79718 4.04318 5.89484 3.91428C6.06281 3.69553 6.02375 3.37912 5.805 3.21115C5.46906 2.95725 5.12922 2.70725 4.78547 2.46506C4.5589 2.30881 4.2464 2.3635 4.09015 2.59006C3.93 2.81662 3.98468 3.12912 4.21125 3.28537C4.54718 3.51975 4.87531 3.75803 5.19562 4.00412L5.19562 4.00412Z" transform="translate(48.99969 8.140409)" id="Shape" fill="#1F212B" fill-rule="evenodd" stroke="none" />
        <path d="M51.8359 8.04688C51.6328 7.86328 51.3164 7.87891 51.1289 8.08203C50.9453 8.28516 50.9609 8.60156 51.1641 8.78516C57.4141 14.4648 61 22.5625 61 31C61 47.543 47.543 61 31 61C14.457 61 1 47.543 1 31C1 14.457 14.457 1 31 1C34.5508 1 38.0234 1.61328 41.3281 2.82422C41.5859 2.92188 41.875 2.78516 41.9687 2.52734C42.0625 2.26953 41.9297 1.98047 41.6719 1.88672C38.2578 0.636719 34.668 0 31 0C13.9063 0 0 13.9063 0 31C0 48.0938 13.9063 62 31 62C48.0938 62 62 48.0938 62 31C62 22.2773 58.2969 13.9141 51.8359 8.04688L51.8359 8.04688Z" transform="translate(5 5)" id="Shape" fill="#1F212B" fill-rule="evenodd" stroke="none" />
        <path d="M20 15L20 3C20 1.34766 18.6523 0 17 0C15.3477 0 14 1.34766 14 3L14 15L3 15C1.34766 15 0 16.3477 0 18C0 19.6523 1.34766 21 3 21L14 21L14 33C14 34.6523 15.3477 36 17 36C18.6523 36 20 34.6523 20 33L20 21L31 21C32.6523 21 34 19.6523 34 18C34 16.3477 32.6523 15 31 15L20 15ZM33 18C33 19.1016 32.1016 20 31 20L19.5 20C19.2227 20 19 20.2227 19 20.5L19 33C19 34.1016 18.1016 35 17 35C15.8984 35 15 34.1016 15 33L15 20.5C15 20.2227 14.7773 20 14.5 20L3 20C1.89844 20 1 19.1016 1 18C1 16.8984 1.89844 16 3 16L14.5 16C14.7773 16 15 15.7773 15 15.5L15 3C15 1.89844 15.8984 1 17 1C18.1016 1 19 1.89844 19 3L19 15.5C19 15.7773 19.2227 16 19.5 16L31 16C32.1016 16 33 16.8984 33 18L33 18Z" transform="translate(19 18)" id="Shape" fill="#1F212B" fill-rule="evenodd" stroke="none" />
      </g>
    </g>
  </g>
</svg>